<svg xmlns="http://www.w3.org/2000/svg" viewBox="0 0 64 64">
  <defs>
    <linearGradient id="bg" x1="0" y1="0" x2="1" y2="1">
      <stop offset="0%" stop-color="#0f172a"/>
      <stop offset="100%" stop-color="#111827"/>
    </linearGradient>
    <linearGradient id="horn" x1="0" y1="0" x2="1" y2="1">
      <stop offset="0%" stop-color="#a78bfa"/>
      <stop offset="100%" stop-color="#22d3ee"/>
    </linearGradient>
  </defs>

  <rect width="64" height="64" rx="14" fill="url(#bg)"/>

  <path d="M24 42c0-7 4-11 8-11s8 4 8 11" fill="none" stroke="url(#horn)" stroke-width="3.5" stroke-linecap="round"/>

  <path d="M28 31c-4-2-6-5-6-9" fill="none" stroke="url(#horn)" stroke-width="3" stroke-linecap="round"/>
  <path d="M22 22c2 0 4-2 5-4" fill="none" stroke="url(#horn)" stroke-width="2.8" stroke-linecap="round"/>
  <path d="M22 22c-2-1-3-3-3-5" fill="none" stroke="url(#horn)" stroke-width="2.8" stroke-linecap="round"/>

  <path d="M36 31c4-2 6-5 6-9" fill="none" stroke="url(#horn)" stroke-width="3" stroke-linecap="round"/>
  <path d="M42 22c-2 0-4-2-5-4" fill="none" stroke="url(#horn)" stroke-width="2.8" stroke-linecap="round"/>
  <path d="M42 22c2-1 3-3 3-5" fill="none" stroke="url(#horn)" stroke-width="2.8" stroke-linecap="round"/>

  <circle cx="28.5" cy="42.5" r="1.5" fill="#d8b4fe"/>
  <circle cx="35.5" cy="42.5" r="1.5" fill="#67e8f9"/>
  <circle cx="32" cy="46.5" r="1.2" fill="#e5e7eb"/>
</svg>
